<?xml version="1.0" encoding="UTF-8" standalone="no"?>
<!-- Created with Inkscape (http://www.inkscape.org/) -->

<svg
   xmlns:dc="http://purl.org/dc/elements/1.1/"
   xmlns:cc="http://creativecommons.org/ns#"
   xmlns:rdf="http://www.w3.org/1999/02/22-rdf-syntax-ns#"
   xmlns:svg="http://www.w3.org/2000/svg"
   xmlns="http://www.w3.org/2000/svg"
   xmlns:xlink="http://www.w3.org/1999/xlink"
   xmlns:sodipodi="http://sodipodi.sourceforge.net/DTD/sodipodi-0.dtd"
   xmlns:inkscape="http://www.inkscape.org/namespaces/inkscape"
   width="138.23541mm"
   height="35.919346mm"
   viewBox="0 0 138.23541 35.919346"
   version="1.1"
   id="svg8"
   inkscape:version="0.92.4 (5da689c313, 2019-01-14)"
   sodipodi:docname="logo2.svg">
  <defs
     id="defs2">
    <linearGradient
       inkscape:collect="always"
       xlink:href="#paint0_linear_0_1"
       id="linearGradient1002"
       x1="238.74184"
       y1="-12.584241"
       x2="290.72607"
       y2="35.513229"
       gradientUnits="userSpaceOnUse"
       gradientTransform="matrix(0.74393537,0,0,0.74393537,-370.5987,92.864995)" />
    <linearGradient
       gradientUnits="userSpaceOnUse"
       y2="1079.5601"
       x2="1812"
       y1="460.5"
       x1="616"
       id="paint0_linear_0_1"
       gradientTransform="matrix(0.05583726,0,0,0.05583726,51.665693,98.030882)">
      <stop
         id="stop823"
         stop-color="#E70AD1" />
      <stop
         id="stop825"
         stop-color="#6100FF"
         offset="1" />
    </linearGradient>
  </defs>
  <sodipodi:namedview
     id="base"
     pagecolor="#ffffff"
     bordercolor="#666666"
     borderopacity="1.0"
     inkscape:pageopacity="0.0"
     inkscape:pageshadow="2"
     inkscape:zoom="0.98994949"
     inkscape:cx="161.54526"
     inkscape:cy="88.731023"
     inkscape:document-units="mm"
     inkscape:current-layer="layer1"
     showgrid="false"
     inkscape:window-width="1920"
     inkscape:window-height="1001"
     inkscape:window-x="-9"
     inkscape:window-y="-9"
     inkscape:window-maximized="1"
     fit-margin-top="0"
     fit-margin-left="0"
     fit-margin-right="0"
     fit-margin-bottom="0" />
  <metadata
     id="metadata5">
    <rdf:RDF>
      <cc:Work
         rdf:about="">
        <dc:format>image/svg+xml</dc:format>
        <dc:type
           rdf:resource="http://purl.org/dc/dcmitype/StillImage" />
        <dc:title></dc:title>
      </cc:Work>
    </rdf:RDF>
  </metadata>
  <g
     inkscape:label="Layer 1"
     inkscape:groupmode="layer"
     id="layer1"
     transform="translate(193.13077,-83.39906)">
    <text
       xml:space="preserve"
       style="font-style:normal;font-variant:normal;font-weight:normal;font-stretch:normal;font-size:15.63440323px;line-height:3.97000003;font-family:'rigel star';-inkscape-font-specification:'rigel star, Normal';font-variant-ligatures:normal;font-variant-caps:normal;font-variant-numeric:normal;font-feature-settings:normal;text-align:start;letter-spacing:2.93145084px;word-spacing:0px;writing-mode:lr-tb;text-anchor:start;fill:#ececec;fill-opacity:1;stroke:none;stroke-width:0.4885751;"
       x="-140.90094"
       y="106.85417"
       id="text1006"><tspan
         sodipodi:role="line"
         id="tspan1004"
         x="-140.90094"
         y="106.85417"
         style="font-style:normal;font-variant:normal;font-weight:normal;font-stretch:normal;font-size:15.63440323px;line-height:3.97000003;font-family:'rigel star';-inkscape-font-specification:'rigel star, Normal';font-variant-ligatures:normal;font-variant-caps:normal;font-variant-numeric:normal;font-feature-settings:normal;text-align:start;letter-spacing:2.93145084px;writing-mode:lr-tb;text-anchor:start;fill:#ececec;fill-opacity:1;stroke:none;stroke-width:0.4885751;">SPECT</tspan></text>
    <path
       style="opacity:1;fill:url(#linearGradient1002);fill-opacity:1;stroke:none;stroke-width:0.19560705;stroke-linejoin:round"
       d="m -173.71189,83.399532 c -0.13828,-0.003 -0.2788,0.0083 -0.42045,0.03407 -1.13139,0.206996 -1.88061,1.29126 -1.67323,2.422105 v 4.01e-4 l 1.94799,10.564399 c 0.006,0.04633 0.0484,0.0803 0.0953,0.0803 0.0472,4.5e-5 0.0879,-0.03407 0.0966,-0.0803 l 1.95688,-10.564399 4.4e-4,-0.0015 c 0.0417,-0.24726 0.0417,-0.499961 0,-0.747243 l -4.4e-4,-0.0015 c -0.18095,-0.989485 -1.03479,-1.686224 -2.00327,-1.706331 z m -7.78479,4.929353 c -0.18448,0.01155 -0.36918,0.047 -0.54919,0.107734 -0.71987,0.242993 -1.25552,0.851502 -1.40493,1.596172 -0.1495,0.74469 0.11005,1.512139 0.6807,2.01379 l 3.8e-4,7.42e-4 5.96026,5.09033 c 0.0324,0.02887 0.0831,0.03208 0.11935,0.0064 0.0362,-0.02567 0.051,-0.07251 0.0359,-0.114213 l -2.707,-7.313925 -3.8e-4,-4.01e-4 c -0.12673,-0.331088 -0.33234,-0.626475 -0.59876,-0.860225 -0.42788,-0.376235 -0.98201,-0.559914 -1.53601,-0.525739 z m 15.23428,0.30379 c -0.74178,5.29e-4 -1.45286,0.392225 -1.83868,1.068421 -0.003,0.0051 -0.006,0.0096 -0.006,0.01508 l -2.68071,7.322824 c -0.0192,0.04171 -1e-4,0.08887 0.0362,0.114214 0.0366,0.02567 0.0853,0.02246 0.11935,-0.0064 l 5.91505,-5.099223 c 10e-4,-0.0014 0.003,-0.0038 0.006,-0.0051 0.24319,-0.243539 0.42282,-0.542413 0.52455,-0.870717 h -4.1e-4 c 0.001,-0.0038 0.002,-0.0067 0.003,-0.0099 0.20244,-1.017975 -0.36378,-2.032299 -1.33633,-2.395149 -0.24351,-0.0907 -0.49394,-0.134137 -0.74124,-0.133977 z m -22.88677,4.084056 c -0.86215,-0.02502 -1.71285,0.37258 -2.23935,1.118053 -0.58699,0.731805 -1.02135,1.859817 -1.30926,3.174603 -0.28906,1.318784 -0.43299,2.835164 -0.43299,4.349943 0,1.51477 0.14405,3.03118 0.43299,4.34997 0.2881,1.31525 0.72227,2.44382 1.3097,3.1754 0.50704,0.68149 1.29838,1.0934 2.1477,1.11846 h 0.003 c 0.43138,-0.003 0.85587,-0.10812 1.23989,-0.30447 3.9e-4,-3.8e-4 7.7e-4,-3.8e-4 0.002,-3.8e-4 l 11.52427,-5.57171 c 0.0324,-0.016 0.0552,-0.0504 0.0552,-0.0876 0,-0.0375 -0.0225,-0.0715 -0.0549,-0.0879 l -2.68075,-1.31291 c -0.0289,-0.0128 -0.0584,-0.0128 -0.0853,0 l -9.82884,4.78652 c -5.1e-4,3.8e-4 -0.002,7.4e-4 -0.002,10e-4 -4.5e-4,3.9e-4 -0.001,3.9e-4 -0.002,3.9e-4 -0.0324,0.016 -0.0661,0.0289 -0.10106,0.0321 -0.0224,-0.01 -0.0581,-0.034 -0.11004,-0.0911 -0.0584,-0.0651 -0.1264,-0.16138 -0.19923,-0.29099 -0.14566,-0.25859 -0.30767,-0.64053 -0.45875,-1.14872 -0.3019,-1.0156 -0.55766,-2.52646 -0.55766,-4.54121 0,-2.014753 0.25602,-3.525134 0.55766,-4.540795 0.15079,-0.508072 0.31313,-0.890168 0.45875,-1.148721 0.0731,-0.129485 0.14084,-0.225829 0.19923,-0.290892 0.051,-0.05663 0.0876,-0.08188 0.10908,-0.09118 0.0359,0.0042 0.0667,0.017 0.0953,0.03593 0.003,0.003 0.006,0.0051 0.01,0.0067 l 6.88908,3.339629 c 7.53971,3.669629 15.08042,7.337499 22.62253,11.002189 1.17753,0.61967 2.63218,0.27141 3.4013,-0.81384 0.59388,-0.73196 1.03321,-1.86014 1.32468,-3.17501 0.2926,-1.3184 0.43905,-2.83478 0.44059,-4.34994 0.002,-1.514781 -0.14116,-3.031225 -0.42971,-4.349977 -0.28746,-1.314821 -0.72128,-2.442785 -1.30849,-3.174587 -0.76561,-1.084286 -2.21767,-1.4331 -3.39291,-0.814632 l -11.53354,5.572267 c -0.0324,0.01604 -0.0552,0.05005 -0.0552,0.08758 0,0.03754 0.0225,0.07154 0.0549,0.08791 l 2.68075,1.312919 c 0.0289,0.0128 0.0584,0.0128 0.0853,0 l 9.82886,-4.786589 c 0.002,-6.99e-4 0.003,-0.0022 0.006,-0.003 0.0289,-0.01604 0.0606,-0.02663 0.093,-0.0308 0.0225,0.0093 0.0603,0.03478 0.11197,0.0916 0.059,0.06503 0.12704,0.161086 0.20019,0.290507 0.1463,0.258489 0.30767,0.640255 0.45795,1.148317 0.30093,1.015347 0.55477,2.526465 0.55477,4.541215 0,2.01513 -0.25378,3.52599 -0.55477,4.54118 -0.15015,0.50819 -0.31152,0.89013 -0.45795,1.14872 -0.0731,0.12961 -0.14116,0.22522 -0.20019,0.29066 -0.051,0.0565 -0.0885,0.0815 -0.11101,0.0911 -0.0359,-0.003 -0.0683,-0.016 -0.0985,-0.0366 -0.003,-0.002 -0.006,-0.003 -0.01,-0.006 l -29.52775,-14.340759 c -0.36721,-0.193265 -0.76132,-0.292336 -1.15317,-0.303789 z m 12.37118,12.831159 c -0.0225,7.4e-4 -0.0417,0.01 -0.0584,0.0225 l -5.91505,5.09884 c -0.001,0.002 -0.003,0.003 -0.006,0.003 -0.24479,0.24094 -0.42981,0.53594 -0.53988,0.86141 -0.38201,0.72571 -0.31024,1.60705 0.18479,2.26153 0.49677,0.65648 1.32966,0.96575 2.13484,0.79244 0.80306,-0.17292 1.43309,-0.79414 1.61718,-1.59415 l 2.6787,-7.31638 c 0.0192,-0.0417 3.2e-4,-0.0889 -0.0362,-0.11422 -0.0192,-0.0128 -0.0398,-0.0192 -0.061,-0.016 z m 6.03816,0 c -0.0225,-7.4e-4 -0.0427,0.003 -0.061,0.016 -0.0366,0.0257 -0.0516,0.0722 -0.0362,0.11422 l 2.67834,7.31635 c 0.18383,0.80004 0.81448,1.42125 1.61757,1.59418 0.80517,0.17325 1.63804,-0.13603 2.13483,-0.79244 0.4951,-0.65451 0.5668,-1.53582 0.18448,-2.26153 -0.11005,-0.32551 -0.29516,-0.62044 -0.53989,-0.86144 -0.001,-7.4e-4 -0.003,-0.002 -0.006,-0.003 l -5.91506,-5.09868 c -0.0192,-0.0161 -0.0372,-0.0225 -0.0584,-0.0225 z m -3.02211,0.67867 c -0.0468,0 -0.0876,0.0334 -0.0953,0.0796 l -1.94798,10.55553 c -0.0468,0.248 -0.0468,0.50283 0,0.75048 0.13378,0.73157 0.64816,1.33569 1.34881,1.58529 0.70068,0.2496 1.48163,0.10715 2.04847,-0.37444 0.56686,-0.48197 0.83385,-1.22937 0.69965,-1.96091 l -1.9569,-10.55595 c -0.006,-0.0462 -0.0491,-0.0796 -0.0966,-0.0796 z"
       id="path977"
       inkscape:connector-curvature="0" />
  </g>
</svg>
